<svg xmlns="http://www.w3.org/2000/svg" viewBox="0 0 503.29 114.55"><defs><style>.cls-1{fill:#fff;}.cls-2{fill:#1976d2;}</style></defs><g id="Layer_1" data-name="Layer 1"><g id="Onion"><path id="Flesh" class="cls-1" d="M323.74,71.34a1.26,1.26,0,0,0,.43-.51,4.72,4.72,0,0,0,.62-2.39c-.12-6.79-.23-12.88-4-14.46-4.06-1.72-9.38,3.14-10.71,4.35a19.88,19.88,0,0,0-6.18,12.34c-.1,1-.75,9.34,5.46,15.41s15.45,6.06,21.73,3.53a22.25,22.25,0,0,0,11.12-10.45c5.31-10,1.61-20.31.84-22.3-4.95-12.9-19.37-20.75-32.84-20.08-2.17.11-15.83,1-24.17,12.42a30.6,30.6,0,0,0-5.71,18.16c.14,16.14,13.38,29.51,26.22,34.7,12.62,5.1,24,2.76,28.79,1.65s17.12-4,25.52-15.08a34.46,34.46,0,0,0,7.25-18.46,34.79,34.79,0,0,0-3.42-17.32c-1.12-2.3-6.16-12.09-17-17-10.41-4.68-18.85-1.52-21.72-6.77a8.51,8.51,0,0,1-.4-6.21,1,1,0,0,0-1.06-1.28l-1.59,0a1.07,1.07,0,0,0-1,.8c-.67,2.51-1.12,6,.51,9.17,3.86,7.44,14.76,3.67,25.44,11.14,8.3,5.79,14.15,16.69,13.22,27.29a28,28,0,0,1-6,14.65c-6.95,9-17,11.29-21.82,12.38-4,.9-13.18,2.87-23.53-.93-2.66-1-20.33-8.29-22.38-25-1.31-10.66,5.92-22.31,17.17-26.28,13-4.6,27.27,2.75,32.1,13.26.57,1.25,4.84,10.93-.59,18.72-4.06,5.79-13.08,9.94-19.78,6a13.49,13.49,0,0,1-5.93-14.67c1.42-5,6.37-8.72,8.12-7.84s2.95,6.14,3.06,9.85A1.39,1.39,0,0,0,323.74,71.34Z" transform="translate(-2.13)"/><path id="Stem" class="cls-2" d="M310.35,27.14l-4.16,1.27a1.16,1.16,0,0,1-1.49-.93l-.11-.72a27.2,27.2,0,0,0-4.53-11.09,1.14,1.14,0,0,1,.36-1.63l1.06-.63a1.16,1.16,0,0,1,1.53.32c.41.58.81,1.17,1.22,1.78l1.49,2.2C308.78,7.27,317.51.12,326.58,0,338.46-.16,346,10.67,348.36,17.63a24.39,24.39,0,0,1,.93,3.64.9.9,0,0,1-1.13,1l-2.66-.73a1.49,1.49,0,0,1-1.06-1.08,20,20,0,0,0-1.89-4.8c-3-5.44-9.67-11.21-16.55-10.59-7.75.7-15.22,9.46-14.85,20.91A1.13,1.13,0,0,1,310.35,27.14Z" transform="translate(-2.13)"/></g><path class="cls-1" d="M401.14,97.25V65.34c0-3.36-.65-5.81-1.93-7.3s-3.13-2.19-5.69-2.19a11.89,11.89,0,0,0-7,2.19,24.56,24.56,0,0,0-5.92,6.43V97.25H374V51.19h5.8l.42,6.16a20.91,20.91,0,0,1,5.39-4.73,16.87,16.87,0,0,1,8.83-2.36c4.24,0,7.54,1.29,9.82,3.83s3.39,6.08,3.39,10.57V97.25Z" transform="translate(-2.13)"/><path class="cls-1" d="M415.16,97.25V51.19h6.53V97.25Zm3.18-56.87a4.37,4.37,0,0,1-3.2-1.25,4.51,4.51,0,0,1,0-6.23,4.33,4.33,0,0,1,3.2-1.26,4.44,4.44,0,0,1,3.29,1.26,4.51,4.51,0,0,1,0,6.23A4.47,4.47,0,0,1,418.34,40.38Z" transform="translate(-2.13)"/><path class="cls-1" d="M446.9,98.18c-6.12,0-11-2.17-14.43-6.46s-5.15-10.11-5.15-17.46a31.53,31.53,0,0,1,2.36-12.64,18.9,18.9,0,0,1,6.84-8.43A18.62,18.62,0,0,1,447,50.26c6.12,0,11,2.14,14.43,6.37s5.15,10.05,5.15,17.46-1.76,13.26-5.23,17.55S453,98.18,446.9,98.18ZM447,56a10.89,10.89,0,0,0-9.39,4.52c-2.26,3.08-3.41,7.69-3.41,13.72s1.13,10.56,3.37,13.64a10.78,10.78,0,0,0,9.34,4.52,11,11,0,0,0,9.43-4.53c2.3-3.07,3.46-7.72,3.46-13.8s-1.14-10.54-3.37-13.59S451.12,56,447,56Z" transform="translate(-2.13)"/><path class="cls-1" d="M498.89,97.25V65.34c0-3.36-.65-5.81-1.93-7.3s-3.13-2.19-5.69-2.19a11.87,11.87,0,0,0-7,2.19,24.72,24.72,0,0,0-5.92,6.43V97.25h-6.53V51.19h5.8l.42,6.16a20.91,20.91,0,0,1,5.39-4.73,16.87,16.87,0,0,1,8.83-2.36c4.24,0,7.54,1.29,9.82,3.83s3.39,6.08,3.39,10.57V97.25Z" transform="translate(-2.13)"/><path class="cls-1" d="M33,38.52a27.45,27.45,0,0,1,8.08,5.14l-4.43,4.93a25.52,25.52,0,0,0-6.5-3.87,18.8,18.8,0,0,0-6.84-1.23,12.66,12.66,0,0,0-7.56,2.13,7.12,7.12,0,0,0-3,6.2,8.36,8.36,0,0,0,1,4.29,9,9,0,0,0,3.78,3.19,48.25,48.25,0,0,0,8,3.06A52.33,52.33,0,0,1,34.77,66a15.93,15.93,0,0,1,5.9,5.39,15.65,15.65,0,0,1,2.25,8.72,16.34,16.34,0,0,1-2.5,9,16.84,16.84,0,0,1-7.23,6.12A26.16,26.16,0,0,1,22,97.47q-12.16,0-19.9-7.57L6.54,85a28.64,28.64,0,0,0,7.23,4.38,21.52,21.52,0,0,0,8.16,1.49,14.63,14.63,0,0,0,9-2.68,9.14,9.14,0,0,0,3.57-7.78,9.44,9.44,0,0,0-1.11-4.8,9.71,9.71,0,0,0-3.78-3.44,38.56,38.56,0,0,0-7.77-3.06q-9-2.73-13.18-6.55T4.5,52.16a13.85,13.85,0,0,1,2.34-7.9,15.48,15.48,0,0,1,6.55-5.44,22.32,22.32,0,0,1,9.56-2A27,27,0,0,1,33,38.52Z" transform="translate(-2.13)"/><path class="cls-1" d="M81.68,76.73H53.12q.51,7.39,3.74,10.88a10.86,10.86,0,0,0,8.33,3.48,18.24,18.24,0,0,0,6-.93,24.11,24.11,0,0,0,5.7-3l3.4,4.68A24.75,24.75,0,0,1,64.6,97.47q-9.34,0-14.58-6.12T44.79,74.52a31.73,31.73,0,0,1,2.26-12.37,19.35,19.35,0,0,1,6.46-8.46,16.36,16.36,0,0,1,9.9-3.06q8.93,0,13.68,5.87t4.76,16.23C81.85,74,81.8,75.37,81.68,76.73Zm-7.56-6.29q0-6.63-2.64-10.12c-1.75-2.32-4.39-3.48-7.9-3.48Q54,56.84,53.12,71h21Z" transform="translate(-2.13)"/><path class="cls-1" d="M111.18,51.78a20.29,20.29,0,0,1,6.37,3.7l-3.74,4.93a18.94,18.94,0,0,0-4.63-2.51,14.6,14.6,0,0,0-5-.81,9.72,9.72,0,0,0-8.46,4.34q-3,4.33-3,12.83t3,12.54a9.93,9.93,0,0,0,8.5,4,13.93,13.93,0,0,0,4.84-.81A24.42,24.42,0,0,0,114,87.44l3.57,5.1a21.3,21.3,0,0,1-13.68,4.93q-9.09,0-14.32-6.12T84.32,74.43A30.45,30.45,0,0,1,86.7,61.94a19.22,19.22,0,0,1,6.76-8.33,18,18,0,0,1,10.41-3A22.11,22.11,0,0,1,111.18,51.78Z" transform="translate(-2.13)"/><path class="cls-1" d="M154.19,96.45h-6.72l-.59-7A17.06,17.06,0,0,1,141,95.55a15.86,15.86,0,0,1-8.07,1.92q-5.86,0-9.18-3.57t-3.32-10.12V51.65h7.82V82.93q0,4.59,1.62,6.5c1.08,1.28,2.83,1.92,5.27,1.92q6.54,0,11.22-7.74v-32h7.82Z" transform="translate(-2.13)"/><path class="cls-1" d="M183.6,51.14l-1.45,7.65a16.1,16.1,0,0,0-3.91-.51,8.31,8.31,0,0,0-6.71,3.06q-2.55,3.06-4,9.52V96.45h-7.82V51.65h6.72l.76,9.1A17,17,0,0,1,172,53.18a10.81,10.81,0,0,1,7.14-2.55A18.23,18.23,0,0,1,183.6,51.14Z" transform="translate(-2.13)"/><path class="cls-1" d="M195.41,31.68a5.18,5.18,0,0,1,1.53,3.82,5,5,0,0,1-1.53,3.78,5.45,5.45,0,0,1-4,1.49,5.34,5.34,0,0,1-3.91-1.49A5,5,0,0,1,186,35.5a5.18,5.18,0,0,1,1.53-3.82,5.29,5.29,0,0,1,3.91-1.53A5.4,5.4,0,0,1,195.41,31.68Zm0,20v44.8h-7.82V51.65Z" transform="translate(-2.13)"/><path class="cls-1" d="M229.86,94.41a17.19,17.19,0,0,1-10,3.06q-5.69,0-8.88-3.28t-3.19-9.47v-27h-7.82v-6h7.82V41.54l7.82-.94v11h10.63l-.85,6h-9.78V84.38c0,2.32.41,4,1.24,5.05S219,91,220.94,91a12.86,12.86,0,0,0,5.95-1.79Z" transform="translate(-2.13)"/><path class="cls-1" d="M253.75,96.7a30.23,30.23,0,0,1-7.36,12.37q-4.71,4.55-13.47,5.48l-.85-6.12a23.15,23.15,0,0,0,7.06-2.21,12.09,12.09,0,0,0,4.2-3.7,25.84,25.84,0,0,0,2.94-6.07h-2.64l-15-44.8h8.33l12,39.1,11.73-39.1h8.08Z" transform="translate(-2.13)"/></g></svg>