<svg xmlns="http://www.w3.org/2000/svg" viewBox="0 0 363.97 195.49"><defs><style>.cls-1{fill:#1976d2;}</style></defs><g id="Layer_1" data-name="Layer 1"><g id="Onion"><path id="Flesh" d="M40.3,119.78a.79.79,0,0,0,.28-.33,3,3,0,0,0,.41-1.54c-.08-4.41-.15-8.35-2.61-9.37-2.66-1.11-6.15,2-7,2.82a12.37,12.37,0,0,0-.47,18c4.09,3.95,10.15,3.92,14.27,2.28a14.46,14.46,0,0,0,7.3-6.77c3.49-6.45,1.06-13.15.56-14.44-3.25-8.35-12.73-13.44-21.57-13-1.43.07-10.39.66-15.87,8a19.71,19.71,0,0,0-3.76,11.76c.1,10.46,8.79,19.11,17.23,22.48a31.38,31.38,0,0,0,18.9,1.06c3.23-.74,11.25-2.57,16.76-9.76a21.4,21.4,0,0,0,2.52-23.17,23.77,23.77,0,0,0-11.17-11c-6.84-3-12.37-1-14.26-4.38a5.43,5.43,0,0,1-.27-4,.67.67,0,0,0-.69-.83l-1,0a.68.68,0,0,0-.64.51,8.19,8.19,0,0,0,.33,5.94c2.54,4.82,9.69,2.38,16.71,7.21,5.45,3.76,9.29,10.81,8.68,17.68a18,18,0,0,1-4,9.49c-4.56,5.84-11.15,7.31-14.33,8a27,27,0,0,1-15.45-.6c-1.74-.63-13.35-5.37-14.7-16.16-.86-6.91,3.89-14.45,11.28-17,8.55-3,17.91,1.78,21.08,8.58.38.81,3.18,7.09-.39,12.12-2.66,3.76-8.58,6.45-13,3.9a8.7,8.7,0,0,1-3.91-9.5c.94-3.25,4.19-5.65,5.34-5.08s1.94,4,2,6.38A.91.91,0,0,0,40.3,119.78Z" transform="translate(-3.31 -7.39)"/><path id="Stem" class="cls-1" d="M31.51,91.16,28.77,92a.77.77,0,0,1-1-.6l-.07-.47a17.4,17.4,0,0,0-3-7.18.74.74,0,0,1,.24-1l.7-.41a.75.75,0,0,1,1,.21c.27.37.54.75.81,1.15l1,1.42c2-6.76,7.75-11.39,13.7-11.47,7.8-.1,12.73,6.91,14.3,11.42a14.87,14.87,0,0,1,.62,2.36.6.6,0,0,1-.75.66l-1.74-.48a1,1,0,0,1-.7-.69,12.23,12.23,0,0,0-1.24-3.11c-2-3.52-6.35-7.26-10.87-6.86-5.08.45-10,6.12-9.75,13.54A.74.74,0,0,1,31.51,91.16Z" transform="translate(-3.31 -7.39)"/></g><path d="M31.92,13.63a25.75,25.75,0,0,1,7.52,4.75l-3,3.14a24.45,24.45,0,0,0-6.46-4,19.41,19.41,0,0,0-7.13-1.24,13.76,13.76,0,0,0-8.76,2.61,8.41,8.41,0,0,0-3.32,7A9,9,0,0,0,12,30.81a10.58,10.58,0,0,0,4.12,3.47,46.62,46.62,0,0,0,8.24,3.1,47.72,47.72,0,0,1,9.36,3.71,14.88,14.88,0,0,1,5.52,5.13,14.77,14.77,0,0,1,1.95,7.93,15.39,15.39,0,0,1-2.38,8.5,15.81,15.81,0,0,1-6.75,5.79A23.69,23.69,0,0,1,21.93,70.5,26.6,26.6,0,0,1,3.31,63.4l2.9-3.14a28.44,28.44,0,0,0,7.22,4.5,21.64,21.64,0,0,0,8.41,1.53,15.75,15.75,0,0,0,10.25-3.22A10.72,10.72,0,0,0,36,54.31a11.08,11.08,0,0,0-1.32-5.7,10.71,10.71,0,0,0-4.25-3.84,46.16,46.16,0,0,0-8.29-3.26q-8.92-2.64-12.75-6.12A12.06,12.06,0,0,1,5.61,26a12.36,12.36,0,0,1,2.17-7.15,14.25,14.25,0,0,1,6-4.95,21,21,0,0,1,8.88-1.78A25.09,25.09,0,0,1,31.92,13.63Z" transform="translate(-3.31 -7.39)"/><path d="M81.51,49.85H51.85q.42,8.43,4.12,12.51a12.49,12.49,0,0,0,9.73,4.09,17.05,17.05,0,0,0,6.17-1,27.78,27.78,0,0,0,5.82-3.26l2.29,3a25.06,25.06,0,0,1-6.8,4,21.66,21.66,0,0,1-7.73,1.32q-8.85,0-13.86-5.86t-5-16.28a30.81,30.81,0,0,1,2.17-12,18.05,18.05,0,0,1,6.2-8,15.86,15.86,0,0,1,9.39-2.85q8.5,0,12.92,5.58t4.42,15.32A32.13,32.13,0,0,1,81.51,49.85Zm-4.67-5q0-7.26-3.1-11.35t-9.23-4.09a11,11,0,0,0-8.92,4.13q-3.41,4.13-3.74,12.55h25Z" transform="translate(-3.31 -7.39)"/><path d="M113.05,26.51a18.94,18.94,0,0,1,5.78,3.35L116.36,33a14.85,14.85,0,0,0-9.86-3.39,12.14,12.14,0,0,0-10,4.75q-3.73,4.76-3.74,13.84t3.7,13.55a12.23,12.23,0,0,0,10,4.54,15.22,15.22,0,0,0,5.4-.91,20.19,20.19,0,0,0,4.88-2.73l2.38,3.23a19.51,19.51,0,0,1-12.75,4.62,18.45,18.45,0,0,1-9.94-2.64,17.37,17.37,0,0,1-6.59-7.64,27.94,27.94,0,0,1-2.34-11.94,28.87,28.87,0,0,1,2.34-12,18.3,18.3,0,0,1,6.59-8,17.48,17.48,0,0,1,9.86-2.81A20.94,20.94,0,0,1,113.05,26.51Z" transform="translate(-3.31 -7.39)"/><path d="M157.84,69.59h-4.25l-.25-7.68q-5.28,8.59-14.54,8.59-6,0-9.3-3.43t-3.28-9.79V26.39h4.93v30.4c0,3.36.73,5.82,2.17,7.39s3.64,2.36,6.59,2.36q7.72,0,13-8.84V26.39h4.93Z" transform="translate(-3.31 -7.39)"/><path d="M190.74,26l-.94,4.54a15.18,15.18,0,0,0-3.91-.49,9.18,9.18,0,0,0-7.27,3.18q-2.76,3.18-4.63,9.95V69.59h-4.93V26.39h4.25l.43,9.67a17.32,17.32,0,0,1,4.88-8,11.61,11.61,0,0,1,7.7-2.6A16.82,16.82,0,0,1,190.74,26Z" transform="translate(-3.31 -7.39)"/><path d="M203.32,8.38a3.32,3.32,0,0,1,1,2.48,3.32,3.32,0,0,1-1,2.48,3.74,3.74,0,0,1-2.72,1,3.63,3.63,0,0,1-2.64-1,3.32,3.32,0,0,1-1-2.48,3.32,3.32,0,0,1,1-2.48,3.63,3.63,0,0,1,2.64-1A3.74,3.74,0,0,1,203.32,8.38Zm-.17,18v43.2h-4.93V26.39Z" transform="translate(-3.31 -7.39)"/><path d="M238.85,67.77a17,17,0,0,1-9.35,2.73,10.72,10.72,0,0,1-8-2.93q-2.89-2.94-2.89-8.47V30.27h-7.48V26.39h7.48V16.07l4.93-.58v10.9H235l-.59,3.88H223.55V58.85c0,2.54.53,4.42,1.61,5.66a6.19,6.19,0,0,0,4.93,1.86,13.8,13.8,0,0,0,6.8-1.9Z" transform="translate(-3.31 -7.39)"/><path d="M260.09,69.76A38.25,38.25,0,0,1,256.18,78a17.44,17.44,0,0,1-5.52,5.32,25.29,25.29,0,0,1-8.76,3.1l-.51-3.71a23.84,23.84,0,0,0,6.93-2.65,12.39,12.39,0,0,0,4-3.92,35.18,35.18,0,0,0,3-6.57h-1.7l-15.46-43.2h5.35L257,66l13.17-39.65h5.19Z" transform="translate(-3.31 -7.39)"/><path d="M69.92,146.7a25.92,25.92,0,0,1,7.52,4.69l-3,3.1A24.54,24.54,0,0,0,68,150.58a19.51,19.51,0,0,0-7.14-1.23,13.93,13.93,0,0,0-8.76,2.57,8.29,8.29,0,0,0-3.31,6.9A8.79,8.79,0,0,0,50,163.67a10.44,10.44,0,0,0,4.12,3.43,46.09,46.09,0,0,0,8.25,3.06,48.68,48.68,0,0,1,9.35,3.67,14.8,14.8,0,0,1,5.52,5.06,14.4,14.4,0,0,1,2,7.84,15.16,15.16,0,0,1-2.38,8.4,15.74,15.74,0,0,1-6.76,5.71,23.81,23.81,0,0,1-10.16,2,26.7,26.7,0,0,1-18.61-7l2.89-3.11a28.54,28.54,0,0,0,7.22,4.45,21.85,21.85,0,0,0,8.42,1.51,15.84,15.84,0,0,0,10.24-3.18,10.53,10.53,0,0,0,4-8.65,10.81,10.81,0,0,0-1.32-5.63,10.62,10.62,0,0,0-4.25-3.79,45.54,45.54,0,0,0-8.28-3.23q-8.92-2.61-12.75-6a11.85,11.85,0,0,1-3.83-9.3,12.13,12.13,0,0,1,2.17-7.06,14.34,14.34,0,0,1,6-4.89,21.31,21.31,0,0,1,8.89-1.76A25.48,25.48,0,0,1,69.92,146.7Z" transform="translate(-3.31 -7.39)"/><path d="M118.54,164.24q5,5.85,5,16.28t-5.06,16.37q-5.06,6-13.81,6T90.83,197q-5-5.92-5-16.28a28.38,28.38,0,0,1,2.29-11.83,17.38,17.38,0,0,1,6.55-7.76,18.36,18.36,0,0,1,10-2.69Q113.57,158.41,118.54,164.24ZM94.7,167.06q-3.57,4.65-3.57,13.63t3.52,13.54a11.81,11.81,0,0,0,10,4.66,12,12,0,0,0,10.07-4.66q3.62-4.65,3.62-13.71c0-5.92-1.18-10.43-3.53-13.5s-5.71-4.61-10.07-4.61A11.91,11.91,0,0,0,94.7,167.06Z" transform="translate(-3.31 -7.39)"/><path d="M135.79,200.84q-2.08-2-2.08-6V141.93l4.93-.57v53.28c0,2.78,1.19,4.16,3.57,4.16a7.46,7.46,0,0,0,3.06-.57l1.36,3.51a11.68,11.68,0,0,1-5.1,1.14A7.85,7.85,0,0,1,135.79,200.84Z" transform="translate(-3.31 -7.39)"/><path d="M185.65,202H181.4l-.26-7.58q-5.26,8.49-14.53,8.48-6,0-9.31-3.38T154,189.83V159.31H159v30q0,5,2.16,7.3c1.45,1.55,3.64,2.33,6.59,2.33q7.74,0,13-8.74V159.31h4.93Z" transform="translate(-3.31 -7.39)"/><path d="M221.34,200.19a17.15,17.15,0,0,1-9.35,2.69q-5.1,0-8-2.89c-1.92-1.93-2.89-4.72-2.89-8.37V163.14h-7.48v-3.83h7.48v-10.2l4.93-.57v10.77h11.48l-.6,3.83H206v28.24q0,3.75,1.62,5.59a6.24,6.24,0,0,0,4.93,1.83,14,14,0,0,0,6.8-1.87Z" transform="translate(-3.31 -7.39)"/><path d="M232.65,141.52a3.45,3.45,0,0,1,0,4.9,3.78,3.78,0,0,1-2.72,1,3.67,3.67,0,0,1-2.64-1,3.45,3.45,0,0,1,0-4.9,3.67,3.67,0,0,1,2.64-1A3.78,3.78,0,0,1,232.65,141.52Zm-.17,17.79V202h-4.93V159.31Z" transform="translate(-3.31 -7.39)"/><path d="M277.06,164.24q5,5.85,5,16.28t-5,16.37q-5.07,6-13.82,6T249.35,197q-5-5.92-5-16.28a28.38,28.38,0,0,1,2.29-11.83,17.38,17.38,0,0,1,6.55-7.76,18.36,18.36,0,0,1,10-2.69Q272.08,158.41,277.06,164.24Zm-23.84,2.82q-3.57,4.65-3.57,13.63t3.53,13.54a11.8,11.8,0,0,0,10,4.66,12.05,12.05,0,0,0,10.08-4.66q3.6-4.65,3.61-13.71c0-5.92-1.18-10.43-3.53-13.5s-5.71-4.61-10.07-4.61A11.91,11.91,0,0,0,253.22,167.06Z" transform="translate(-3.31 -7.39)"/><path d="M322.79,161.84q3.19,3.42,3.19,9.63V202h-4.93V172.12q0-5.15-2.13-7.51t-6.29-2.36a12.94,12.94,0,0,0-7.52,2.24,25.25,25.25,0,0,0-6.25,6.57V202h-4.93V159.31h4.25l.51,7.26a20.64,20.64,0,0,1,6.46-6,16.55,16.55,0,0,1,8.42-2.16Q319.6,158.41,322.79,161.84Z" transform="translate(-3.31 -7.39)"/><path d="M359.47,159.59a25.77,25.77,0,0,1,6.63,3.55l-2.3,3.1a25.66,25.66,0,0,0-5.78-3,18,18,0,0,0-5.95-.94,12,12,0,0,0-7.14,2,6.12,6.12,0,0,0-2.72,5.22,5.61,5.61,0,0,0,2.34,4.81c1.56,1.15,4.38,2.23,8.46,3.27q7.56,1.88,10.92,4.73c2.24,1.91,3.36,4.62,3.36,8.16a10.63,10.63,0,0,1-4.59,9.06,19,19,0,0,1-11.48,3.34,25.49,25.49,0,0,1-8.92-1.42,24.06,24.06,0,0,1-7-4l2.72-3a22.18,22.18,0,0,0,6.07,3.38,20.77,20.77,0,0,0,7,1.11,13.35,13.35,0,0,0,7.94-2.17,6.94,6.94,0,0,0,3-6,7.91,7.91,0,0,0-1-4.25,8.06,8.06,0,0,0-3.48-2.81,40.88,40.88,0,0,0-7.23-2.41q-7-1.8-10.16-4.49a9.05,9.05,0,0,1-3.1-7.18,9.22,9.22,0,0,1,2-5.75,12.69,12.69,0,0,1,5.31-4,19.09,19.09,0,0,1,7.52-1.43A23.17,23.17,0,0,1,359.47,159.59Z" transform="translate(-3.31 -7.39)"/><path d="M107.38,95.46q3.18,3.47,3.19,9.75V136.1h-4.93V105.87q0-5.2-2.13-7.6c-1.42-1.6-3.51-2.4-6.29-2.4a12.83,12.83,0,0,0-7.52,2.28,25.16,25.16,0,0,0-6.25,6.64V136.1H78.52V92.9h4.25l.51,7.35a20.55,20.55,0,0,1,6.46-6.07A16.34,16.34,0,0,1,98.16,92Q104.19,92,107.38,95.46Z" transform="translate(-3.31 -7.39)"/><path d="M128.16,74.89a3.52,3.52,0,0,1,0,5,3.74,3.74,0,0,1-2.72,1,3.61,3.61,0,0,1-2.63-1,3.52,3.52,0,0,1,0-5,3.61,3.61,0,0,1,2.63-1A3.74,3.74,0,0,1,128.16,74.89Zm-.17,18v43.2h-4.93V92.9Z" transform="translate(-3.31 -7.39)"/><path d="M170,97.9q5,5.89,5,16.48t-5.05,16.56Q164.87,137,156.12,137t-13.81-6q-5-6-5-16.48a29.1,29.1,0,0,1,2.29-12,17.5,17.5,0,0,1,6.55-7.84,18.15,18.15,0,0,1,10-2.73Q165,92,170,97.9Zm-23.84,2.85q-3.57,4.71-3.57,13.79t3.53,13.71a11.74,11.74,0,0,0,10,4.71,12,12,0,0,0,10.08-4.71q3.6-4.71,3.61-13.87t-3.53-13.67Q162.76,96,156.21,96A11.85,11.85,0,0,0,146.18,100.75Z" transform="translate(-3.31 -7.39)"/><path d="M213.2,95.46q3.2,3.47,3.19,9.75V136.1h-4.93V105.87q0-5.2-2.13-7.6T203,95.87a12.83,12.83,0,0,0-7.52,2.28,25.13,25.13,0,0,0-6.24,6.64V136.1h-4.94V92.9h4.25l.51,7.35a20.58,20.58,0,0,1,6.47-6.07A16.31,16.31,0,0,1,204,92Q210,92,213.2,95.46Z" transform="translate(-3.31 -7.39)"/></g></svg>