<svg xmlns="http://www.w3.org/2000/svg" viewBox="0 0 497.86 182.25"><defs><style>.cls-1{fill:#1976d2;}</style></defs><g id="Layer_1" data-name="Layer 1"><g id="Onion"><path id="Flesh" d="M316.18,71.34a1.27,1.27,0,0,0,.44-.51,4.74,4.74,0,0,0,.61-2.39c-.12-6.79-.22-12.88-4-14.46-4-1.72-9.38,3.14-10.7,4.35a19.82,19.82,0,0,0-6.18,12.34c-.1,1-.76,9.34,5.46,15.41s15.45,6.06,21.72,3.53a22.25,22.25,0,0,0,11.12-10.45c5.31-10,1.62-20.31.85-22.3-5-12.9-19.38-20.75-32.85-20.08-2.17.11-15.82,1-24.16,12.42a30.55,30.55,0,0,0-5.72,18.16C273,83.5,286.19,96.87,299,102.06c12.62,5.1,24,2.76,28.79,1.65s17.12-4,25.52-15.08a34.47,34.47,0,0,0,7.24-18.46,34.85,34.85,0,0,0-3.41-17.32c-1.12-2.3-6.17-12.09-17-17-10.42-4.68-18.85-1.52-21.72-6.77a8.56,8.56,0,0,1-.41-6.21A1,1,0,0,0,317,21.63l-1.6,0a1.05,1.05,0,0,0-1,.8c-.67,2.51-1.12,6,.5,9.17,3.87,7.44,14.77,3.67,25.45,11.14,8.3,5.79,14.14,16.69,13.22,27.29a28,28,0,0,1-6,14.65c-6.95,9-17,11.29-21.82,12.38-4,.9-13.19,2.87-23.54-.93-2.65-1-20.33-8.29-22.38-25C278.53,60.55,285.77,48.9,297,44.93c13-4.6,27.26,2.75,32.1,13.26.57,1.25,4.84,10.93-.6,18.72-4,5.79-13.07,9.94-19.77,6a13.5,13.5,0,0,1-5.94-14.67c1.42-5,6.37-8.72,8.13-7.84s2.95,6.14,3.06,9.85A1.38,1.38,0,0,0,316.18,71.34Z"/><path id="Stem" class="cls-1" d="M302.8,27.14l-4.17,1.27a1.15,1.15,0,0,1-1.48-.93l-.12-.72a26.93,26.93,0,0,0-4.53-11.09,1.15,1.15,0,0,1,.37-1.63l1.06-.63a1.15,1.15,0,0,1,1.52.32c.41.58.82,1.17,1.23,1.78l1.48,2.2C301.23,7.27,310,.12,319,0,330.9-.16,338.4,10.67,340.8,17.63a23.37,23.37,0,0,1,.94,3.64.91.91,0,0,1-1.14,1L338,21.56a1.47,1.47,0,0,1-1.06-1.08,20,20,0,0,0-1.89-4.8c-3-5.44-9.68-11.21-16.55-10.59-7.75.7-15.23,9.46-14.85,20.91A1.16,1.16,0,0,1,302.8,27.14Z"/></g><path d="M393.59,97.25V65.34c0-3.36-.65-5.81-1.94-7.3s-3.12-2.19-5.68-2.19A11.92,11.92,0,0,0,378.91,58,24.7,24.7,0,0,0,373,64.47V97.25h-6.53V51.19h5.8l.41,6.16a21.11,21.11,0,0,1,5.4-4.73,16.87,16.87,0,0,1,8.83-2.36c4.24,0,7.54,1.29,9.81,3.83s3.4,6.08,3.4,10.57V97.25Z"/><path d="M407.61,97.25V51.19h6.53V97.25Zm3.18-56.87a4.36,4.36,0,0,1-3.2-1.25,4.51,4.51,0,0,1,0-6.23,4.33,4.33,0,0,1,3.2-1.26,4.45,4.45,0,0,1,3.29,1.26,4.51,4.51,0,0,1,0,6.23A4.49,4.49,0,0,1,410.79,40.38Z"/><path d="M439.35,98.18c-6.12,0-11-2.17-14.44-6.46s-5.14-10.11-5.14-17.46a31.53,31.53,0,0,1,2.36-12.64,17.89,17.89,0,0,1,17.3-11.36c6.12,0,11,2.14,14.44,6.37S459,66.68,459,74.09s-1.76,13.26-5.24,17.55S445.41,98.18,439.35,98.18ZM439.43,56a10.89,10.89,0,0,0-9.38,4.52c-2.27,3.08-3.42,7.69-3.42,13.72S427.77,84.82,430,87.9a10.78,10.78,0,0,0,9.34,4.52,11,11,0,0,0,9.43-4.53c2.29-3.07,3.46-7.72,3.46-13.8s-1.14-10.54-3.38-13.59S443.56,56,439.43,56Z"/><path d="M491.33,97.25V65.34c0-3.36-.65-5.81-1.93-7.3s-3.12-2.19-5.68-2.19A11.92,11.92,0,0,0,476.66,58a24.87,24.87,0,0,0-5.91,6.43V97.25h-6.53V51.19H470l.41,6.16a21.11,21.11,0,0,1,5.4-4.73,16.86,16.86,0,0,1,8.82-2.36c4.25,0,7.55,1.29,9.82,3.83s3.39,6.08,3.39,10.57V97.25Z"/><path d="M19.77,98.18A27,27,0,0,1,.61,90.65L0,90.12,4,85.72l.6.51a27.81,27.81,0,0,0,7,4.51,20.42,20.42,0,0,0,8.1,1.51,14.74,14.74,0,0,0,9.73-3.13,10.32,10.32,0,0,0,3.66-8.4,10.82,10.82,0,0,0-1.21-5.46,10.15,10.15,0,0,0-3.95-3.66,44.29,44.29,0,0,0-8.13-3.29c-6-1.84-10.43-4-13.06-6.47A13.44,13.44,0,0,1,2.65,51.57,13.94,13.94,0,0,1,5,43.77a15.49,15.49,0,0,1,6.36-5.38,21.53,21.53,0,0,1,9.23-1.9,25.39,25.39,0,0,1,9.52,1.63,26.49,26.49,0,0,1,7.76,5l.6.55-4,4.38-.59-.49a23.34,23.34,0,0,0-6.24-4,18.1,18.1,0,0,0-6.84-1.22,12.78,12.78,0,0,0-8.25,2.5,7.94,7.94,0,0,0-3,6.56,8.76,8.76,0,0,0,1.11,4.64,10,10,0,0,0,3.83,3.29,45.39,45.39,0,0,0,8.09,3.12A48.09,48.09,0,0,1,32,66.43,15.91,15.91,0,0,1,37.8,72a16.41,16.41,0,0,1,2.07,8.57,17.1,17.1,0,0,1-2.5,9.18A16.83,16.83,0,0,1,30.28,96,24,24,0,0,1,19.77,98.18Z"/><path d="M62,98.18c-6.12,0-11-2.13-14.47-6.32s-5.2-10-5.2-17.26a33.68,33.68,0,0,1,2.22-12.67,19.52,19.52,0,0,1,6.48-8.59,16.4,16.4,0,0,1,9.86-3.08c5.9,0,10.46,2,13.56,6.05s4.58,9.42,4.58,16.25c0,1.26-.06,2.49-.17,3.65l-.07.72H49.27c.36,5.15,1.66,9,3.87,11.55a11.48,11.48,0,0,0,9.13,3.94,15.86,15.86,0,0,0,5.87-1,26.36,26.36,0,0,0,5.65-3.26l.64-.47,3.21,4.4-.58.48a26.38,26.38,0,0,1-7,4.21A21.93,21.93,0,0,1,62,98.18ZM72.61,71.51V71c0-4.79-1-8.56-3-11.21s-4.73-3.88-8.58-3.88a10,10,0,0,0-8.3,4c-2,2.55-3.22,6.45-3.52,11.62Z"/><path d="M101.63,98.18a19,19,0,0,1-10.38-2.84,18.59,18.59,0,0,1-6.88-8.21A30.41,30.41,0,0,1,82,74.52a31.46,31.46,0,0,1,2.4-12.69,19.66,19.66,0,0,1,6.87-8.54,18,18,0,0,1,10.31-3,21.2,21.2,0,0,1,7.07,1.1,19.68,19.68,0,0,1,6,3.59l.58.49-3.43,4.49-.64-.52a15.12,15.12,0,0,0-4.31-2.5,14.89,14.89,0,0,0-5-.8,11.13,11.13,0,0,0-9.4,4.57c-2.37,3.1-3.57,7.73-3.57,13.75S90,84.92,92.35,87.87a11.2,11.2,0,0,0,9.36,4.38,14,14,0,0,0,5.11-.89,19.33,19.33,0,0,0,4.69-2.69l.66-.5,3.29,4.58-.56.48A20,20,0,0,1,101.63,98.18Z"/><path d="M131.46,98.18c-4.24,0-7.57-1.27-9.89-3.78s-3.49-6.07-3.49-10.62V51.19h6.53V83.27c0,3.24.66,5.62,2,7.08s3.29,2.15,6,2.15c4.84,0,8.83-2.78,12.2-8.51V51.19h6.53V97.25h-5.82l-.2-6.19A16.51,16.51,0,0,1,131.46,98.18Z"/><path d="M157.1,97.25V51.19h5.81l.3,7a15.63,15.63,0,0,1,3.73-5,12.14,12.14,0,0,1,8.21-2.87,17.13,17.13,0,0,1,4.64.54l.71.2-1.25,6.24-.82-.23a14.11,14.11,0,0,0-3.7-.48,8.23,8.23,0,0,0-6.66,3c-1.75,2.07-3.24,5.38-4.44,9.83v27.9Z"/><path d="M184.12,97.25V51.19h6.54V97.25Zm3.18-56.87a4.37,4.37,0,0,1-3.2-1.25,4.51,4.51,0,0,1,0-6.23,4.34,4.34,0,0,1,3.2-1.26,4.44,4.44,0,0,1,3.29,1.26,4.51,4.51,0,0,1,0,6.23A4.47,4.47,0,0,1,187.3,40.38Z"/><path d="M214.08,98.18a11.37,11.37,0,0,1-8.57-3.26c-2.06-2.16-3.11-5.27-3.11-9.27V56.79h-7.48v-5.6h7.48V40.66l6.53-.79V51.19h11.6l-.83,5.6H208.93V85.4c0,2.4.48,4.18,1.43,5.3a5.26,5.26,0,0,0,4.31,1.63,12.81,12.81,0,0,0,6.41-1.85l.69-.4,2.73,4.75-.63.41A17.48,17.48,0,0,1,214.08,98.18Z"/><path d="M225.52,109.36l.69-.17a23.14,23.14,0,0,0,6.69-2.62,11.86,11.86,0,0,0,3.74-3.79,31.49,31.49,0,0,0,2.56-5.53h-1.12l-16-46.06h7.06l12.84,39,12.6-39h6.89L245.86,96.87a41.47,41.47,0,0,1-4,8.68,18.86,18.86,0,0,1-5.77,5.72,25.53,25.53,0,0,1-9,3.3l-.83.16Z"/><path class="cls-1" d="M20.43,182.25A27.52,27.52,0,0,1,.92,174.59L0,173.72l4.58-5.12,1,.82a27.25,27.25,0,0,0,6.89,4.43,20,20,0,0,0,7.9,1.47,14.26,14.26,0,0,0,9.41-3,9.82,9.82,0,0,0,3.49-8,10.49,10.49,0,0,0-1.15-5.22,9.65,9.65,0,0,0-3.76-3.46,43.62,43.62,0,0,0-8-3.25c-6.19-1.89-10.52-4-13.25-6.58a13.93,13.93,0,0,1-4.23-10.64,14.34,14.34,0,0,1,2.38-8.07,15.71,15.71,0,0,1,6.56-5.56,21.91,21.91,0,0,1,9.44-2,26,26,0,0,1,9.71,1.66,27.32,27.32,0,0,1,7.91,5.13l1,.88-4.71,5.11-1-.8A23.29,23.29,0,0,0,28,127.67a17.69,17.69,0,0,0-6.65-1.18,12.32,12.32,0,0,0-7.94,2.39,7.47,7.47,0,0,0-2.83,6.17,8.22,8.22,0,0,0,1,4.37,9.45,9.45,0,0,0,3.64,3.12,44,44,0,0,0,8,3.08,49,49,0,0,1,9.62,3.94,16.43,16.43,0,0,1,6,5.73A16.88,16.88,0,0,1,41,164.12a17.65,17.65,0,0,1-2.57,9.44,17.37,17.37,0,0,1-7.3,6.44A24.46,24.46,0,0,1,20.43,182.25Z"/><path class="cls-1" d="M82.9,182.25a23.63,23.63,0,0,1-13.12-3.69A24.21,24.21,0,0,1,61,167.79,41.36,41.36,0,0,1,57.89,151,41.76,41.76,0,0,1,61,134.27a24.55,24.55,0,0,1,8.85-10.93,23.27,23.27,0,0,1,13.08-3.78,22.74,22.74,0,0,1,22,14.46A42.38,42.38,0,0,1,108,151a41.94,41.94,0,0,1-3,16.71,24.16,24.16,0,0,1-8.76,10.85A23.74,23.74,0,0,1,82.9,182.25Zm0-55.76a14.58,14.58,0,0,0-12.39,6c-3.1,4.08-4.67,10.32-4.67,18.55s1.58,14.28,4.7,18.33a14.67,14.67,0,0,0,12.36,6c5.46,0,9.57-1.93,12.56-5.9s4.59-10.25,4.59-18.47-1.56-14.53-4.63-18.55S88.3,126.49,82.9,126.49Z"/><polygon class="cls-1" points="129.71 181.32 129.71 120.49 137.41 120.49 137.41 174.13 161.93 174.13 160.86 181.32 129.71 181.32"/><path class="cls-1" d="M199.09,182.25c-6.57,0-11.68-1.88-15.18-5.59s-5.24-8.68-5.24-14.83V120.49h7.7V161.4c0,4.53,1,8,3.12,10.36s5.26,3.47,9.6,3.47,7.56-1.18,9.56-3.5,3.09-5.86,3.09-10.33V120.49h7.78v41.34c0,6.09-1.78,11.07-5.28,14.78S205.61,182.25,199.09,182.25Z"/><polygon class="cls-1" points="253.3 181.32 253.3 127.59 236.04 127.59 236.04 120.49 278.78 120.49 277.84 127.59 260.91 127.59 260.91 181.32 253.3 181.32"/><rect class="cls-1" x="295.54" y="120.49" width="7.7" height="60.83"/><path class="cls-1" d="M350,182.25a23.63,23.63,0,0,1-13.12-3.69A24.21,24.21,0,0,1,328,167.79,41.35,41.35,0,0,1,325,151,41.75,41.75,0,0,1,328,134.27a24.53,24.53,0,0,1,8.84-10.93A23.3,23.3,0,0,1,350,119.56,22.71,22.71,0,0,1,372,134,42.21,42.21,0,0,1,375.07,151a41.94,41.94,0,0,1-3,16.71,24.11,24.11,0,0,1-8.77,10.85A23.71,23.71,0,0,1,350,182.25Zm0-55.76a14.61,14.61,0,0,0-12.4,6c-3.09,4.08-4.66,10.32-4.66,18.55s1.58,14.28,4.7,18.33a14.66,14.66,0,0,0,12.36,6c5.46,0,9.56-1.93,12.56-5.9s4.58-10.25,4.58-18.47-1.55-14.53-4.62-18.55S355.37,126.49,350,126.49Z"/><path class="cls-1" d="M428.91,181.32l-25-48c.23,4.91.34,9.65.34,14.12v33.86h-7.44V120.49h8.63l25.17,48c-.21-4.14-.31-7.92-.31-11.29V120.49h7.44v60.83Z"/><path class="cls-1" d="M477,182.25a27.54,27.54,0,0,1-19.51-7.66l-.91-.87,4.58-5.12,1,.82a27.12,27.12,0,0,0,6.9,4.43,20,20,0,0,0,7.9,1.47,14.28,14.28,0,0,0,9.41-3,9.84,9.84,0,0,0,3.48-8,10.49,10.49,0,0,0-1.14-5.22,9.79,9.79,0,0,0-3.76-3.46,43.77,43.77,0,0,0-8.05-3.25c-6.18-1.89-10.52-4-13.24-6.58a13.94,13.94,0,0,1-4.24-10.64,14.27,14.27,0,0,1,2.39-8.07,15.71,15.71,0,0,1,6.56-5.56,21.88,21.88,0,0,1,9.44-2,26,26,0,0,1,9.71,1.66,27.32,27.32,0,0,1,7.91,5.13l1,.88-4.71,5.11-.95-.8a23.46,23.46,0,0,0-6.11-3.87,17.72,17.72,0,0,0-6.65-1.18,12.28,12.28,0,0,0-7.94,2.39,7.45,7.45,0,0,0-2.83,6.17,8.22,8.22,0,0,0,1,4.37,9.41,9.41,0,0,0,3.63,3.12,44,44,0,0,0,8,3.08,49,49,0,0,1,9.62,3.94,16.35,16.35,0,0,1,6,5.73,16.79,16.79,0,0,1,2.15,8.83,17.57,17.57,0,0,1-2.58,9.44,17.28,17.28,0,0,1-7.29,6.44A24.53,24.53,0,0,1,477,182.25Z"/></g></svg>