<?xml version="1.0" encoding="utf-8"?>
<svg id="Layer_1" data-name="Layer 1" viewBox="0 0 120.488 120.22" xmlns="http://www.w3.org/2000/svg" xmlns:bx="https://boxy-svg.com">
  <defs>
    <style>.cls-1{fill:none;}.cls-2{fill:#fff;}.cls-3{fill:#1976d2;}</style>
    <bx:grid x="0" y="0" width="3.15" height="3.581"/>
  </defs>
  <g id="Onion" transform="matrix(1, 0, 0, 1, 8.310411, 0)">
    <path class="cls-1" d="M32.22,33.76l.11.72a1.17,1.17,0,0,0,1.49.93L38,34.14a1.14,1.14,0,0,0,.8-1.14c-.37-11.46,7.11-20.22,14.85-20.91,6.88-.63,13.53,5.15,16.55,10.59a19.24,19.24,0,0,1,1.89,4.8,1.52,1.52,0,0,0,1.06,1.08l2.66.72a.89.89,0,0,0,1.13-1A23.22,23.22,0,0,0,76,24.62C73.59,17.67,66.09,6.84,54.21,7c-9.07.12-17.79,7.27-20.86,17.71l-1.48-2.2c-.41-.61-.82-1.2-1.23-1.78a1.15,1.15,0,0,0-1.53-.32L28.05,21a1.14,1.14,0,0,0-.36,1.63A27.2,27.2,0,0,1,32.22,33.76Z"/>
    <path class="cls-1" d="M75.36,42.89C65,38.21,56.52,41.37,53.64,36.12a8.51,8.51,0,0,1-.4-6.21,1,1,0,0,0-1.06-1.29l-1.59.05a1.06,1.06,0,0,0-1,.79c-.66,2.52-1.12,6,.51,9.17C54,46.07,64.87,42.31,75.56,49.77c8.29,5.8,14.14,16.69,13.21,27.29a28.19,28.19,0,0,1-6,14.66c-7,9-17,11.28-21.83,12.37-4,.91-13.18,2.87-23.53-.93-2.65-1-20.33-8.28-22.38-25C13.72,67.54,21,55.89,32.2,51.92c13-4.6,27.27,2.76,32.1,13.26.58,1.25,4.84,10.94-.59,18.72-4.05,5.8-13.07,9.95-19.77,6A13.47,13.47,0,0,1,38,75.25c1.42-5,6.37-8.72,8.13-7.84s2.94,6.14,3,9.84a1.38,1.38,0,0,0,2.19,1.08,1.27,1.27,0,0,0,.44-.51,4.8,4.8,0,0,0,.61-2.38c-.12-6.8-.23-12.88-4-14.47-4.05-1.71-9.38,3.14-10.71,4.35a19.92,19.92,0,0,0-6.18,12.35c-.09,1-.75,9.33,5.46,15.41s15.45,6.06,21.73,3.53A22.29,22.29,0,0,0,69.88,86.16c5.31-10,1.61-20.31.85-22.31C65.77,51,51.35,43.1,37.88,43.78c-2.17.11-15.82,1-24.17,12.41A30.61,30.61,0,0,0,8,74.35c.15,16.15,13.38,29.51,26.22,34.71,12.62,5.1,24,2.75,28.79,1.64s17.12-4,25.52-15.07a34.41,34.41,0,0,0,7.25-18.46,34.82,34.82,0,0,0-3.42-17.33C91.25,57.54,86.2,47.75,75.36,42.89Z"/>
    <path class="cls-2" d="M99.56,56.36C97.47,52,91.28,41.42,79,35.75a7.92,7.92,0,0,0,4.84-8.68,30.4,30.4,0,0,0-1.22-4.73C79.74,14,70.59,0,54.47,0h-.35C45,.12,36.42,5.29,31,13.35a8.29,8.29,0,0,0-5.48,1L24.49,15a8.15,8.15,0,0,0-2.57,11.63,19.91,19.91,0,0,1,3.38,8.21l.12.72a8.33,8.33,0,0,0,.77,2.4A37.74,37.74,0,0,0,7.26,51.47,38.67,38.67,0,0,0,0,74.42c.18,20.3,16.32,36,31.22,42.05a51.71,51.71,0,0,0,19.51,3.75,62,62,0,0,0,14.09-1.72c5.45-1.27,19.94-4.63,30.09-18a41.38,41.38,0,0,0,4.65-44.1ZM28.05,21l1.06-.63a1.15,1.15,0,0,1,1.53.32c.41.58.82,1.17,1.23,1.78l1.48,2.2C36.42,14.27,45.14,7.12,54.21,7,66.09,6.84,73.59,17.67,76,24.62a23.22,23.22,0,0,1,.93,3.64.89.89,0,0,1-1.13,1l-2.66-.72a1.52,1.52,0,0,1-1.06-1.08,19.24,19.24,0,0,0-1.89-4.8c-3-5.44-9.67-11.22-16.55-10.59-7.74.69-15.22,9.45-14.85,20.91a1.14,1.14,0,0,1-.8,1.14l-4.16,1.27a1.17,1.17,0,0,1-1.49-.93l-.11-.72a27.2,27.2,0,0,0-4.53-11.09A1.14,1.14,0,0,1,28.05,21ZM95.78,77.17a34.41,34.41,0,0,1-7.25,18.46c-8.4,11.1-20.61,13.93-25.52,15.07s-16.17,3.46-28.79-1.64C21.38,103.86,8.15,90.5,8,74.35a30.61,30.61,0,0,1,5.71-18.16c8.35-11.4,22-12.3,24.17-12.41C51.35,43.1,65.77,51,70.73,63.85c.76,2,4.46,12.33-.85,22.31A22.29,22.29,0,0,1,58.76,96.61c-6.28,2.53-15.5,2.56-21.73-3.53s-5.55-14.4-5.46-15.41a19.92,19.92,0,0,1,6.18-12.35c1.33-1.21,6.66-6.06,10.71-4.35,3.73,1.59,3.84,7.67,4,14.47a4.8,4.8,0,0,1-.61,2.38,1.27,1.27,0,0,1-.44.51,1.38,1.38,0,0,1-2.19-1.08c-.11-3.7-1.17-8.9-3-9.84S39.42,70.22,38,75.25a13.47,13.47,0,0,0,5.94,14.66c6.7,3.94,15.72-.21,19.77-6,5.43-7.78,1.17-17.47.59-18.72-4.83-10.5-19.08-17.86-32.1-13.26C21,55.89,13.72,67.54,15,78.21c2,16.67,19.73,24,22.38,25,10.35,3.8,19.5,1.84,23.53.93,4.83-1.09,14.87-3.34,21.83-12.37a28.19,28.19,0,0,0,6-14.66c.93-10.6-4.92-21.49-13.21-27.29C64.87,42.31,54,46.07,50.11,38.63c-1.63-3.13-1.17-6.65-.51-9.17a1.06,1.06,0,0,1,1-.79l1.59-.05a1,1,0,0,1,1.06,1.29,8.51,8.51,0,0,0,.4,6.21c2.88,5.25,11.31,2.09,21.72,6.77,10.84,4.86,15.89,14.65,17,17A34.82,34.82,0,0,1,95.78,77.17Z"/>
    <path d="M50.72,113.22A44.86,44.86,0,0,1,33.85,110,46.92,46.92,0,0,1,15.58,96.45C10,89.69,7.07,82.06,7,74.36A31.61,31.61,0,0,1,12.9,55.6C21.06,44.47,34,43,37.83,42.78c.56,0,1.12,0,1.68,0,14.23,0,27.46,8.53,32.16,20.75,1.42,3.77,4.2,13.55-.91,23.14A22.85,22.85,0,0,1,59.14,97.54a24.16,24.16,0,0,1-8.8,1.68,19.71,19.71,0,0,1-14-5.43c-6.3-6.17-5.9-14.58-5.75-16.21a21,21,0,0,1,6.5-13c3.62-3.3,6.83-5,9.53-5a5.77,5.77,0,0,1,2.24.44c4.33,1.85,4.44,8.11,4.57,15.37a5.8,5.8,0,0,1-.69,2.8,2.5,2.5,0,0,1-.79.94,2.39,2.39,0,0,1-3.76-1.88c-.12-4.1-1.31-8.38-2.5-9a.48.48,0,0,0-.16,0c-1.55,0-5.38,3.06-6.56,7.24a12.42,12.42,0,0,0,5.49,13.53,10.45,10.45,0,0,0,5.35,1.41,17,17,0,0,0,13.09-7.13c5-7.15,1.3-16,.5-17.73-3.81-8.29-13.26-14.08-23-14.08a23.58,23.58,0,0,0-7.87,1.34C22,56.58,14.74,67.66,16,78.09c2,16.47,19.72,23.39,21.73,24.13a36.33,36.33,0,0,0,12.52,2.19,45.33,45.33,0,0,0,10.45-1.3c4.74-1.07,14.54-3.28,21.26-12A27.29,27.29,0,0,0,87.78,77C88.62,67.3,83.37,56.45,75,50.59c-4.87-3.4-9.79-4.39-14.13-5.26-5-1-9.38-1.88-11.64-6.24-1.4-2.69-1.6-6-.59-9.88a2.08,2.08,0,0,1,1.94-1.54l1.58-.05a2.06,2.06,0,0,1,1.69.8,2,2,0,0,1,.37,1.74,7.41,7.41,0,0,0,.31,5.48c1.31,2.4,4.23,2.74,8.27,3.2a41.63,41.63,0,0,1,13,3.14c10.46,4.69,15.72,13.75,17.49,17.43a36.1,36.1,0,0,1,3.52,17.83,35.44,35.44,0,0,1-7.45,19C80.71,107.62,68,110.56,63.25,111.67A54,54,0,0,1,50.72,113.22Z"/>
    <path d="M92.36,59.84a34.82,34.82,0,0,1,3.42,17.33,34.41,34.41,0,0,1-7.25,18.46c-8.4,11.1-20.61,13.93-25.52,15.07s-16.17,3.46-28.79-1.64C21.38,103.86,8.15,90.5,8,74.35a30.61,30.61,0,0,1,5.71-18.16c8.35-11.4,22-12.3,24.17-12.41C51.35,43.1,65.77,51,70.73,63.85c.76,2,4.46,12.33-.85,22.31A22.29,22.29,0,0,1,58.76,96.61c-6.28,2.53-15.5,2.56-21.73-3.53s-5.55-14.4-5.46-15.41a19.92,19.92,0,0,1,6.18-12.35c1.33-1.21,6.66-6.06,10.71-4.35,3.73,1.59,3.84,7.67,4,14.47a4.8,4.8,0,0,1-.61,2.38,1.27,1.27,0,0,1-.44.51,1.38,1.38,0,0,1-2.19-1.08c-.11-3.7-1.17-8.9-3-9.84S39.42,70.22,38,75.25a13.47,13.47,0,0,0,5.94,14.66c6.7,3.94,15.72-.21,19.77-6,5.43-7.78,1.17-17.47.59-18.72-4.83-10.5-19.08-17.86-32.1-13.26C21,55.89,13.72,67.54,15,78.21c2,16.67,19.73,24,22.38,25,10.35,3.8,19.5,1.84,23.53.93,4.83-1.09,14.87-3.34,21.83-12.37a28.19,28.19,0,0,0,6-14.66c.93-10.6-4.92-21.49-13.21-27.29C64.87,42.31,54,46.07,50.11,38.63c-1.63-3.13-1.17-6.65-.51-9.17a1.06,1.06,0,0,1,1-.79l1.59-.05a1,1,0,0,1,1.06,1.29,8.51,8.51,0,0,0,.4,6.21c2.88,5.25,11.31,2.09,21.72,6.77C86.2,47.75,91.25,57.54,92.36,59.84Z"/>
    <path class="cls-3" d="M33.48,36.46a2.16,2.16,0,0,1-2.14-1.82l-.11-.73a26,26,0,0,0-4.36-10.67,2.12,2.12,0,0,1-.33-1.67,2.15,2.15,0,0,1,1-1.39l1.06-.63a2.17,2.17,0,0,1,2.86.6c.41.59.83,1.19,1.24,1.8l.35.51C36.66,12.79,45.11,6.12,54.2,6h.27C67.24,6,74.75,18,76.94,24.29a24.59,24.59,0,0,1,1,3.8,1.88,1.88,0,0,1-2.39,2.15l-2.65-.71a2.56,2.56,0,0,1-1.77-1.81,18.27,18.27,0,0,0-1.79-4.55C66.51,18.14,60.59,13,54.67,13c-.32,0-.63,0-1,.05-7,.62-14.3,8.76-13.94,19.88a2.12,2.12,0,0,1-1.49,2.12l-4.18,1.28A2.28,2.28,0,0,1,33.48,36.46Z"/>
  </g>
  <polygon style="stroke: rgb(0, 0, 0); stroke-width: 0px; fill: rgb(255, 153, 0);" points="80 0 120 40 119.656 0.105" bx:origin="0.495625 0.502"/>
</svg>